<svg xmlns="http://www.w3.org/2000/svg" width="14.392" height="11.448" viewBox="0 0 14.392 11.448">
  <path id="Combined_Shape" data-name="Combined Shape" d="M1.066,11.248A1.067,1.067,0,0,1,0,10.182V3.926A1.067,1.067,0,0,1,1.066,2.86h.8L2.07.974A1.066,1.066,0,0,1,3.131,0q.045,0,.089,0l9.994.835a1.066,1.066,0,0,1,.973,1.151l-.521,6.234a1.071,1.071,0,0,1-1.061.977q-.045,0-.089,0l-.356-.03v1.015a1.067,1.067,0,0,1-1.066,1.066ZM.554,10.182a.512.512,0,0,0,.512.511H11.094a.512.512,0,0,0,.512-.511V6.755H.554ZM2.622,1.024v.006l-.2,1.831h8.668A1.067,1.067,0,0,1,12.16,3.926V8.611l.4.034.042,0a.514.514,0,0,0,.51-.469l.521-6.235a.511.511,0,0,0-.467-.552L3.174.556l-.043,0A.514.514,0,0,0,2.622,1.024ZM.554,6.2H11.606V5.05H.554Zm0-2.275V4.5H11.606v-.57a.512.512,0,0,0-.512-.512H1.066A.512.512,0,0,0,.554,3.926ZM7.778,9.874A.278.278,0,0,1,7.5,9.6V7.856a.278.278,0,0,1,.277-.277h2.668a.278.278,0,0,1,.277.277V9.6a.278.278,0,0,1-.277.278Zm.277-.555h2.114V8.133H8.055Z" transform="translate(0.1 0.1)" fill="#676771" stroke="#676771" stroke-miterlimit="10" stroke-width="0.2"/>
</svg>
