<svg xmlns="http://www.w3.org/2000/svg" width="56.998" height="48.318" viewBox="0 0 56.998 48.318">
  <g id="box_in_ware_house" transform="translate(0)">
    <path id="Path_5249" data-name="Path 5249" d="M65.732,365.523c-6.721-5.39-13.345-10.726-20.055-16.1a1.114,1.114,0,0,1-.471-.885c-.547-7.266-1.125-14.354-1.706-21.654,6.985,4.352,13.9,8.832,20.872,13.218a.832.832,0,0,1,.425.776C65.1,349.1,65.493,357.3,65.732,365.523Z" transform="translate(-42.001 -317.446)" fill="#0091FF"/>
    <path id="Path_5250" data-name="Path 5250" d="M607.228,476.183l-13.118,4.409c.443-8.238.946-16.42,1.42-24.646a.611.611,0,0,1,.293-.453c3.686-.833,7.353-1.826,11.051-2.543C606.991,460.686,607.109,468.411,607.228,476.183Z" transform="translate(-561.055 -435.203)" fill="#0091FF"/>
    <path id="Path_5251" data-name="Path 5251" d="M108.43,249.695c3.516-.644,6.8-1.263,10.286-1.858a1.343,1.343,0,0,1,.912.166,2.386,2.386,0,0,0,1.9.365c1.49-.276,2.991-.465,4.489-.684a.521.521,0,0,1,.33.031c.784.475,1.561.965,2.4,1.489l-3,2.913c1.032.715,2.035,1.287,3.1,1.9a1.687,1.687,0,0,0,.921.2c1.813-.154,3.623-.363,5.437-.516a1.555,1.555,0,0,1,.86.232c.549.317,1.068.7,1.646,1.089l-1.794,3.429.727.5c-3,.785-6.04,1.312-9.059,2.02a1.279,1.279,0,0,1-1.015-.186C120.526,257.067,114.459,253.455,108.43,249.695Z" transform="translate(-103.21 -243.462)" fill="#0091FF"/>
    <path id="Path_5252" data-name="Path 5252" d="M353.559,220.307c-6.024,1.327-11.909,2.557-17.913,3.885-.557.123-.867-.268-1.318-.5l1.789-3.429c-.922-.619-1.8-1.256-2.719-1.8-.254-.149-.636-.033-.957,0-1.716.164-3.43.351-5.147.5a1.447,1.447,0,0,1-.781-.2c-.7-.387-1.378-.82-2.128-1.274l2.97-2.888c-.671-.6-1.464-.851-2.137-1.424a3.139,3.139,0,0,0-2.848-.6c-1.308.274-2.636.424-3.955.616a1.746,1.746,0,0,1-.452-.049l-.005-.138c4.136-.791,8.282-1.513,12.424-2.259a1.13,1.13,0,0,1,.611.045C338.514,213.98,346.059,217.062,353.559,220.307Z" transform="translate(-300.731 -208.953)" fill="#0091FF"/>
    <path id="Path_5253" data-name="Path 5253" d="M430.792,540.226l-5.116,1.721c-.333-8.477-.663-16.888-1-25.353l4.642-1.093C429.812,523.756,430.3,531.953,430.792,540.226Z" transform="translate(-401.335 -493.628)" fill="#0091FF"/>
    <path id="Path_5254" data-name="Path 5254" d="M515.61,498.913l5.286-1.243c-.29,8.177-.922,16.331-1.356,24.5-.009.154-.1.4-.2.432-.734.278-1.48.514-2.275.781C516.579,515.2,516.1,507.1,515.61,498.913Z" transform="translate(-487.054 -476.974)" fill="#0091FF"/>
    <path id="Path_5255" data-name="Path 5255" d="M827.013,455.686c-.118-7.771-.236-15.482-.353-23.237l5.268-1.239c-.644,7.734-1.318,15.406-2,23.127a.606.606,0,0,1-.265.438C828.8,455.1,827.931,455.376,827.013,455.686Z" transform="translate(-780.277 -414.896)" fill="#0091FF"/>
    <path id="Path_5256" data-name="Path 5256" d="M424.692,377.917c0-.9-.017-1.724.017-2.543a.564.564,0,0,1,.358-.373c11.09-2.406,22.166-4.911,33.268-7.221,0,.6.017,1.191-.016,1.775-.006.1-.205.247-.333.279Q441.345,373.922,424.692,377.917Z" transform="translate(-401.342 -355.649)" fill="#0091FF"/>
    <path id="Path_5257" data-name="Path 5257" d="M893.53,441.845c.649-7.725,1.311-15.358,2.006-23.066a.609.609,0,0,1,.321-.433c.948-.249,1.9-.456,2.939-.7-.75,7.63-1.547,15.215-2.329,22.836-.017.158-.115.4-.221.437C895.371,441.244,894.486,441.526,893.53,441.845Z" transform="translate(-843.314 -402.23)" fill="#0091FF"/>
    <path id="Path_5258" data-name="Path 5258" d="M17.355,271.2c7.462,4.377,14.854,8.894,22.3,13.307a.8.8,0,0,1,.453.851c-.036.7-.01,1.408-.01,2.189-7.451-4.655-14.833-9.43-22.269-14.112a.886.886,0,0,1-.483-.953C17.385,272.08,17.355,271.671,17.355,271.2Z" transform="translate(-17.34 -265.438)" fill="#0091FF"/>
    <path id="Path_5259" data-name="Path 5259" d="M47.31,188.975l28-5.155v1.018c-8.476,1.525-16.942,3.175-25.431,4.582a10.521,10.521,0,0,1-2.571-.255Z" transform="translate(-45.593 -183.82)" fill="#0091FF"/>
    <path id="Path_5260" data-name="Path 5260" d="M49.267,273a11.71,11.71,0,0,1,2.379.816Q61.2,279.5,70.709,285.267l-.363.579L49.21,273.2Z" transform="translate(-47.384 -267.119)" fill="#0091FF"/>
    <path id="Path_5261" data-name="Path 5261" d="M571.632,196.584a13.631,13.631,0,0,1-1.538-.451q-11.316-4.734-22.625-9.494c-.671-.282-.671-.282-.577-1.249l24.8,11.013C571.673,196.465,571.653,196.524,571.632,196.584Z" transform="translate(-516.501 -185.286)" fill="#0091FF"/>
    <path id="Path_5262" data-name="Path 5262" d="M463.023,362.9l-30.869,6.726-.044-.156a3.85,3.85,0,0,1,.609-.247q5-1.087,10-2.158c6.766-1.391,13.5-3.047,20.288-4.3Z" transform="translate(-408.339 -350.969)" fill="#0091FF"/><!--2d53a1  -->
  </g>
</svg>
