<svg id="call_red_fig" xmlns="http://www.w3.org/2000/svg" width="38" height="38" viewBox="0 0 38 38">
  <rect id="here-input_copy" data-name="here-input copy" width="38" height="38" rx="19" fill="#e63331"/>
  <g id="Call_Missed" data-name="Call Missed" transform="translate(11 11)">
    <path id="Stroke_1" data-name="Stroke 1" d="M.423,2.045C.7,1.593,2.2-.048,3.269,0A1.415,1.415,0,0,1,4.1.446,14.556,14.556,0,0,1,6.229,3.324c.209,1.007-.991,1.588-.624,2.6a8.507,8.507,0,0,0,4.842,4.839c1.014.368,1.595-.832,2.6-.623a14.557,14.557,0,0,1,2.878,2.126,1.412,1.412,0,0,1,.445.834c.04,1.128-1.7,2.651-2.043,2.846a2.982,2.982,0,0,1-3.123-.029C7.646,14.439,1.96,8.86.452,5.167A2.986,2.986,0,0,1,.423,2.045Z" transform="translate(0.431 0.197)" fill="none" stroke="#fff" stroke-linecap="round" stroke-linejoin="round" stroke-miterlimit="10" stroke-width="1.5"/>
  </g>
</svg>
