<svg id="delete_box_widget_orange" xmlns="http://www.w3.org/2000/svg" width="51" height="51" viewBox="0 0 51 51">
  <rect id="Rectangle_5_Copy_2" data-name="Rectangle 5 Copy 2" width="51" height="51" rx="6" fill="#f68620" opacity="0.152"/>
  <path id="Delete" d="M4.364,16.965a2.478,2.478,0,0,1-2.5-2.4l-.108-1.071-.189-2.076L1.371,9.134,1.149,6.4a.633.633,0,0,1,.57-.687.624.624,0,0,1,.657.5l.025.25.208,2.565.227,2.658c.1,1.151.191,2.082.261,2.736a1.236,1.236,0,0,0,1.292,1.271c2.084.045,4.231.045,6.466,0A1.255,1.255,0,0,0,12.2,14.414l.108-1.065q.047-.493.1-1.084l.228-2.615L12.912,6.3a.629.629,0,0,1,.585-.585h.085a.631.631,0,0,1,.571.6l-.008.175L13.877,9.76l-.281,3.2c-.059.637-.113,1.175-.158,1.6a2.5,2.5,0,0,1-2.561,2.416Q9.234,17,7.648,17,5.978,17,4.364,16.965ZM11.97,4.241H.622A.639.639,0,0,1,.537,2.972l.085-.006H3.33a.746.746,0,0,0,.7-.518l.024-.095L4.27,1.28A1.694,1.694,0,0,1,5.762.005L5.9,0H9.4A1.69,1.69,0,0,1,11,1.182l.041.138.2,1.033a.752.752,0,0,0,.634.607l.1.006h2.708a.639.639,0,0,1,.085,1.27l-.085.005ZM10.127,2.966a2.077,2.077,0,0,1-.073-.222l-.032-.14-.193-.994a.442.442,0,0,0-.351-.328L9.4,1.275H5.9a.446.446,0,0,0-.394.236l-.022.058L5.279,2.6a2.083,2.083,0,0,1-.106.363Z" transform="translate(18 17)" fill="#f68620"/>
</svg>
