<svg xmlns="http://www.w3.org/2000/svg" width="19.165" height="19.999" viewBox="0 0 19.165 19.999">
  <g id="delete_widget" transform="translate(0.75 0.75)">
    <path id="Stroke_1" data-name="Stroke 1" d="M14.782,0s-.566,6.735-.894,9.572a2.3,2.3,0,0,1-2.456,2.174c-2.718.047-5.439.05-8.155-.005A2.268,2.268,0,0,1,.893,9.579C.563,6.717,0,0,0,0" transform="translate(1.441 6.718)" fill="none" stroke="#e63331" stroke-linecap="round" stroke-linejoin="round" stroke-miterlimit="10" stroke-width="1.5"/>
    <path id="Stroke_3" data-name="Stroke 3" d="M17.665.5H0" transform="translate(0 2.989)" fill="none" stroke="#e63331" stroke-linecap="round" stroke-linejoin="round" stroke-miterlimit="10" stroke-width="1.5"/>
    <path id="Stroke_5" data-name="Stroke 5" d="M10.857,3.489A1.7,1.7,0,0,1,9.175,2.165L8.922.949A1.325,1.325,0,0,0,7.633,0H3.224A1.325,1.325,0,0,0,1.935.949L1.682,2.165A1.7,1.7,0,0,1,0,3.489" transform="translate(3.404)" fill="none" stroke="#e63331" stroke-linecap="round" stroke-linejoin="round" stroke-miterlimit="10" stroke-width="1.5"/>
  </g>
</svg>
