<svg xmlns="http://www.w3.org/2000/svg" width="18" height="20" viewBox="0 0 18 20">
  <g id="Document" transform="translate(0)">
    <path id="Document-2" data-name="Document" d="M5.138,20a6.942,6.942,0,0,1-1.171-.094l-.218-.041A4.447,4.447,0,0,1,.986,18.179,5.547,5.547,0,0,1,0,14.791V5.209a7.431,7.431,0,0,1,.06-.96C.41,1.549,2.262,0,5.138,0h7.725C16.05,0,17.97,1.919,18,5.132v9.659C18,18.052,16.079,20,12.863,20ZM1.437,5.209v9.581c0,2.489,1.245,3.752,3.7,3.752h7.716c2.45,0,3.692-1.263,3.692-3.752V5.209c0-2.489-1.242-3.752-3.692-3.752H5.138C2.682,1.457,1.437,2.72,1.437,5.209ZM8.715,15.381a.724.724,0,0,1,0-1.448h4.21a.724.724,0,0,1,0,1.448Zm4.21-4.452H8.715a.735.735,0,0,1,0-1.458h4.21a.722.722,0,0,1,.691.339.741.741,0,0,1,0,.779.721.721,0,0,1-.691.339Zm0-4.467H8.715A.735.735,0,0,1,8.715,5h4.21a.723.723,0,0,1,.691.339.743.743,0,0,1,0,.78A.722.722,0,0,1,13,6.466.712.712,0,0,1,12.925,6.462Z" transform="translate(0)" fill="#676771"/>
    <circle id="Oval" cx="0.5" cy="0.5" r="0.5" transform="translate(5 5)" fill="none" stroke="#676771" stroke-miterlimit="10" stroke-width="2"/>
    <circle id="Oval_Copy" data-name="Oval Copy" cx="0.5" cy="0.5" r="0.5" transform="translate(5 9)" fill="none" stroke="#676771" stroke-miterlimit="10" stroke-width="2"/>
    <circle id="Oval_Copy_2" data-name="Oval Copy 2" cx="0.5" cy="0.5" r="0.5" transform="translate(5 14)" fill="none" stroke="#676771" stroke-miterlimit="10" stroke-width="2"/>
  </g>
</svg>
