<svg xmlns="http://www.w3.org/2000/svg" width="18" height="20" viewBox="0 0 18 20">
  <g id="Document" transform="translate(0)">
    <path id="Combined_Shape" data-name="Combined Shape" d="M12.863,20H5.138a6.941,6.941,0,0,1-1.171-.094l-.218-.041A4.447,4.447,0,0,1,.985,18.179,5.547,5.547,0,0,1,0,14.791V5.209a7.43,7.43,0,0,1,.06-.96C.41,1.549,2.261,0,5.138,0h7.725C16.05,0,17.97,1.918,18,5.132v9.659C18,18.052,16.08,20,12.863,20ZM5.736,14a.735.735,0,1,0,.734.734A.736.736,0,0,0,5.736,14Zm2.979-.068a.724.724,0,0,0,0,1.448h4.21a.724.724,0,0,0,0-1.448Zm0-4.462a.735.735,0,0,0,0,1.458h4.21c.03,0,.054,0,.077,0a.718.718,0,0,0,.614-.344.745.745,0,0,0,0-.779.715.715,0,0,0-.691-.339H8.715ZM5.736,9a.735.735,0,1,0,.734.735A.736.736,0,0,0,5.736,9Zm0-4a.735.735,0,1,0,.734.734A.736.736,0,0,0,5.736,5ZM8.715,5a.735.735,0,0,0,0,1.458h4.21c.033,0,.057,0,.078,0a.725.725,0,0,0,.613-.343.739.739,0,0,0,0-.78A.715.715,0,0,0,12.925,5H8.715Z" transform="translate(0)" fill="#e63331"/>
  </g>
</svg>
