<svg id="buttons_copy_2" data-name="buttons copy 2" xmlns="http://www.w3.org/2000/svg" xmlns:xlink="http://www.w3.org/1999/xlink" width="51" height="51" viewBox="0 0 51 51">
  <defs>
    <clipPath id="clip-path">
      <path id="Clip_4" data-name="Clip 4" d="M.728,10.381A.435.435,0,0,1,.3,10.031,14.85,14.85,0,0,1,1.65.237a.435.435,0,1,1,.775.4A13.987,13.987,0,0,0,1.155,9.859a.436.436,0,0,1-.427.522" transform="translate(0.023 0.049)" fill="#e63331"/>
    </clipPath>
    <clipPath id="clip-path-2">
      <path id="Clip_7" data-name="Clip 7" d="M.435,6.852A.435.435,0,0,1,.084,6.16a14.988,14.988,0,0,1,18.7-4.625.435.435,0,0,1-.384.782A14.118,14.118,0,0,0,.787,6.673a.435.435,0,0,1-.352.179" transform="translate(0.057 0)" fill="#e63331"/>
    </clipPath>
    <clipPath id="clip-path-3">
      <path id="Clip_10" data-name="Clip 10" d="M6.34,9.913a.435.435,0,0,1-.426-.349A14.069,14.069,0,0,0,.185.792a.435.435,0,0,1,.5-.713A14.936,14.936,0,0,1,6.767,9.392a.436.436,0,0,1-.427.522" transform="translate(0.058 0.019)" fill="#e63331"/>
    </clipPath>
    <clipPath id="clip-path-4">
      <path id="Clip_13" data-name="Clip 13" d="M.723,4.045H.714A.435.435,0,0,1,.287,3.6,14.245,14.245,0,0,0,.009.522.435.435,0,1,1,.862.349a15.107,15.107,0,0,1,.3,3.268.435.435,0,0,1-.435.427" transform="translate(0 0.032)" fill="#e63331"/>
    </clipPath>
    <clipPath id="clip-path-5">
      <path id="Clip_16" data-name="Clip 16" d="M.574,1.492a.436.436,0,0,1-.422-.331C.1.951.052.736.009.522A.435.435,0,1,1,.862.349c.041.2.086.405.135.6a.436.436,0,0,1-.423.54" transform="translate(0.04 0.031)" fill="#e63331"/>
    </clipPath>
    <clipPath id="clip-path-6">
      <path id="Clip_19" data-name="Clip 19" d="M.435,14.945a.435.435,0,0,1-.327-.723A15.861,15.861,0,0,0,3.77.522.435.435,0,1,1,4.624.35,16.725,16.725,0,0,1,.762,14.8a.434.434,0,0,1-.327.148" transform="translate(0.022 0.068)" fill="#e63331"/>
    </clipPath>
    <clipPath id="clip-path-7">
      <path id="Clip_22" data-name="Clip 22" d="M.435,5.772a.435.435,0,0,1-.311-.739A14.136,14.136,0,0,0,3.187.277.435.435,0,1,1,4,.594,15,15,0,0,1,.747,5.641a.434.434,0,0,1-.312.131" transform="translate(0.06 0.064)" fill="#e63331"/>
    </clipPath>
    <clipPath id="clip-path-8">
      <path id="Clip_25" data-name="Clip 25" d="M.544,17.168a.435.435,0,0,1-.343-.7A17.78,17.78,0,0,0,3.625,1.992L3.6,1.866a1.394,1.394,0,0,0-2.727.487l.038.188A14.913,14.913,0,0,1,.879,8.646a.435.435,0,1,1-.851-.182A14.025,14.025,0,0,0,.135,3.125H.128L.045,2.714a2.264,2.264,0,1,1,4.439-.9l.077.382-.009,0A18.65,18.65,0,0,1,.887,17a.434.434,0,0,1-.343.167" transform="translate(0.032 0.014)" fill="#e63331"/>
    </clipPath>
    <clipPath id="clip-path-9">
      <path id="Clip_28" data-name="Clip 28" d="M.435,11.9a.435.435,0,0,1-.3-.753A12.346,12.346,0,0,0,3.938.494.435.435,0,1,1,4.8.377a13.219,13.219,0,0,1-4.068,11.4.434.434,0,0,1-.3.117" transform="translate(0.046 0.044)" fill="#e63331"/>
    </clipPath>
    <clipPath id="clip-path-10">
      <path id="Clip_31" data-name="Clip 31" d="M7.977,7.726a.435.435,0,0,1-.435-.434,19.759,19.759,0,0,0-.39-3.839l-.034-.167a3.212,3.212,0,0,0-6.257.145.435.435,0,1,1-.852-.178,4.083,4.083,0,0,1,8,.026l.074.369-.007,0a20.618,20.618,0,0,1,.336,3.639.435.435,0,0,1-.434.437h0" transform="translate(0.067 0.043)" fill="#e63331"/>
    </clipPath>
    <clipPath id="clip-path-11">
      <path id="Clip_34" data-name="Clip 34" d="M.435,9.916a.435.435,0,0,1-.359-.681A19.686,19.686,0,0,0,3.38.386a.435.435,0,1,1,.865.1A20.561,20.561,0,0,1,.794,9.727a.434.434,0,0,1-.36.19" transform="translate(0.051 0.037)" fill="#e63331"/>
    </clipPath>
    <clipPath id="clip-path-12">
      <path id="Clip_37" data-name="Clip 37" d="M.435,17.856a.435.435,0,0,1-.285-.765A10.532,10.532,0,0,0,3.625,7.341l-.061-.269A5.906,5.906,0,0,1,9.81.018a.435.435,0,0,1-.068.868A5.036,5.036,0,0,0,4.378,6.68l.049.218A11.4,11.4,0,0,1,.72,17.75a.433.433,0,0,1-.285.106" transform="translate(0.056 0.001)" fill="#e63331"/>
    </clipPath>
    <clipPath id="clip-path-13">
      <path id="Clip_40" data-name="Clip 40" d="M.562,19.944a.435.435,0,0,1-.375-.656A21.4,21.4,0,0,0,2.7,4.22l-.033-.163A5.03,5.03,0,0,0,.223.816.435.435,0,0,1,.647.055,5.9,5.9,0,0,1,3.56,4.047l.069.344-.005,0A22.265,22.265,0,0,1,.937,19.729a.435.435,0,0,1-.376.215" transform="translate(0.041 0.053)" fill="#e63331"/>
    </clipPath>
    <clipPath id="clip-path-14">
      <path id="Clip_43" data-name="Clip 43" d="M.435,4.638a.435.435,0,0,1-.276-.772A8.735,8.735,0,0,0,2.76.278a.435.435,0,1,1,.811.315A9.608,9.608,0,0,1,.711,4.54a.433.433,0,0,1-.275.1" transform="translate(0.025 0.058)" fill="#e63331"/>
    </clipPath>
    <clipPath id="clip-path-15">
      <path id="Clip_46" data-name="Clip 46" d="M15.018,15.242a.443.443,0,0,1-.071-.006.435.435,0,0,1-.359-.5,23.154,23.154,0,0,0-.156-8.365l-.026-.127A6.849,6.849,0,0,0,.964,8.848l.051.23a9.551,9.551,0,0,1,.136,2.9.435.435,0,1,1-.865-.092A8.665,8.665,0,0,0,.208,9.5L.153,9.251A7.719,7.719,0,1,1,15.286,6.2l.054.269,0,0a24.009,24.009,0,0,1,.109,8.408.435.435,0,0,1-.429.365" transform="translate(0.05 0.03)" fill="#e63331"/>
    </clipPath>
    <clipPath id="clip-path-16">
      <path id="Clip_49" data-name="Clip 49" d="M.435,5.119a.436.436,0,0,1-.391-.626A23.3,23.3,0,0,0,1.6.323a.435.435,0,1,1,.841.225A24.191,24.191,0,0,1,.826,4.874a.435.435,0,0,1-.391.245" transform="translate(0.045 0.033)" fill="#e63331"/>
    </clipPath>
    <clipPath id="clip-path-17">
      <path id="Clip_52" data-name="Clip 52" d="M.828,18.561a.435.435,0,0,1-.406-.591,25,25,0,0,0,1.167-13.8L1.57,4.081A8.606,8.606,0,0,0,.083.692a.435.435,0,1,1,.7-.513,9.464,9.464,0,0,1,1.6,3.574h0l.032.156A25.873,25.873,0,0,1,1.234,18.281a.435.435,0,0,1-.407.28" transform="translate(0.051 0.04)" fill="#e63331"/>
    </clipPath>
    <clipPath id="clip-path-18">
      <path id="Clip_55" data-name="Clip 55" d="M10.006,2.937a.433.433,0,0,1-.275-.1A8.678,8.678,0,0,0,.617,1.662.435.435,0,0,1,.254.871,9.548,9.548,0,0,1,10.282,2.165a.435.435,0,0,1-.276.772" transform="translate(0.051 0.059)" fill="#e63331"/>
    </clipPath>
    <clipPath id="clip-path-19">
      <path id="Clip_58" data-name="Clip 58" d="M.435,16.878A.436.436,0,0,1,.163,16.1,6.842,6.842,0,0,0,2.635,9.615L2.588,9.4A9.527,9.527,0,0,1,5.929.1a.435.435,0,0,1,.549.676A8.657,8.657,0,0,0,3.4,8.99l.051.234a7.71,7.71,0,0,1-2.74,7.558.433.433,0,0,1-.272.1" transform="translate(0.028 0.03)" fill="#e63331"/>
    </clipPath>
    <clipPath id="clip-path-20">
      <path id="Clip_61" data-name="Clip 61" d="M.435,7.859a.435.435,0,0,1-.282-.768A5.046,5.046,0,0,0,1.872,2.43l-.039-.181a11.49,11.49,0,0,1-.217-1.8.435.435,0,1,1,.87-.036A10.606,10.606,0,0,0,2.641,1.84l.051.235A5.917,5.917,0,0,1,.716,7.756a.433.433,0,0,1-.281.1" transform="translate(0.066 0.003)" fill="#e63331"/>
    </clipPath>
    <clipPath id="clip-path-21">
      <path id="Clip_64" data-name="Clip 64" d="M22.15,11.054a.435.435,0,0,1-.43-.372c-.059-.4-.127-.8-.2-1.195l-.041-.2A10.486,10.486,0,0,0,.864,9.569a.435.435,0,1,1-.857-.149A11.356,11.356,0,0,1,22.258,8.8h0l.067.322c.1.477.181.96.251,1.437a.435.435,0,0,1-.367.495.441.441,0,0,1-.064,0" transform="translate(0.056 0.017)" fill="#e63331"/>
    </clipPath>
    <clipPath id="clip-path-22">
      <path id="Clip_67" data-name="Clip 67" d="M.436,9.582a.435.435,0,0,1-.421-.548A26.7,26.7,0,0,0,.864.463.435.435,0,1,1,1.732.408,27.574,27.574,0,0,1,.856,9.259a.435.435,0,0,1-.42.323" transform="translate(0.037 0.053)" fill="#e63331"/>
    </clipPath>
    <clipPath id="clip-path-23">
      <path id="Clip_70" data-name="Clip 70" d="M.435,19.345a.435.435,0,0,1-.319-.731,3.231,3.231,0,0,0,.821-2.69l-.028-.135A13.184,13.184,0,0,1,15.587.118a.435.435,0,0,1-.116.863A12.312,12.312,0,0,0,1.718,15.39l.048.226a4.1,4.1,0,0,1-1.012,3.59.434.434,0,0,1-.319.139" transform="translate(0.061 0.045)" fill="#e63331"/>
    </clipPath>
    <clipPath id="clip-path-24">
      <path id="Clip_73" data-name="Clip 73" d="M9.405,19.86a.435.435,0,0,1-.432-.489,28.673,28.673,0,0,0-.3-8.973l-.053-.253A12.329,12.329,0,0,0,.3.85.435.435,0,0,1,.568.021,13.2,13.2,0,0,1,9.39,9.6H9.4l.078.371a29.559,29.559,0,0,1,.363,9.506.435.435,0,0,1-.431.382" transform="translate(0.052 0.01)" fill="#e63331"/>
    </clipPath>
  </defs>
  <rect id="Rectangle_Copy_2" data-name="Rectangle Copy 2" width="51" height="51" rx="6" fill="#e63331" opacity="0.2"/>
  <g id="shutterstock_224849644" transform="translate(10 11)">
    <g id="Group_5" data-name="Group 5" transform="translate(0 7.891)">
      <path id="Clip_4-2" data-name="Clip 4" d="M.728,10.381A.435.435,0,0,1,.3,10.031,14.85,14.85,0,0,1,1.65.237a.435.435,0,1,1,.775.4A13.987,13.987,0,0,0,1.155,9.859a.436.436,0,0,1-.427.522" transform="translate(0.023 0.049)" fill="#e63331"/>
      <g id="Group_5-2" data-name="Group 5" clip-path="url(#clip-path)">
        <path id="Fill_3" data-name="Fill 3" d="M.728,10.381A.435.435,0,0,1,.3,10.031,14.85,14.85,0,0,1,1.65.237a.435.435,0,1,1,.775.4A13.987,13.987,0,0,0,1.155,9.859a.436.436,0,0,1-.427.522" transform="translate(0.023 0.049)" fill="#e63331"/>
      </g>
    </g>
    <g id="Group_8" data-name="Group 8" transform="translate(2.773)">
      <path id="Clip_7-2" data-name="Clip 7" d="M.435,6.852A.435.435,0,0,1,.084,6.16a14.988,14.988,0,0,1,18.7-4.625.435.435,0,0,1-.384.782A14.118,14.118,0,0,0,.787,6.673a.435.435,0,0,1-.352.179" transform="translate(0.057 0)" fill="#e63331"/>
      <g id="Group_8-2" data-name="Group 8" clip-path="url(#clip-path-2)">
        <path id="Fill_6" data-name="Fill 6" d="M.435,6.852A.435.435,0,0,1,.084,6.16a14.988,14.988,0,0,1,18.7-4.625.435.435,0,0,1-.384.782A14.118,14.118,0,0,0,.787,6.673a.435.435,0,0,1-.352.179" transform="translate(0.057 0)" fill="#e63331"/>
      </g>
    </g>
    <g id="Group_11" data-name="Group 11" transform="translate(22.891 2.63)">
      <path id="Clip_10-2" data-name="Clip 10" d="M6.34,9.913a.435.435,0,0,1-.426-.349A14.069,14.069,0,0,0,.185.792a.435.435,0,0,1,.5-.713A14.936,14.936,0,0,1,6.767,9.392a.436.436,0,0,1-.427.522" transform="translate(0.058 0.019)" fill="#e63331"/>
      <g id="Group_11-2" data-name="Group 11" clip-path="url(#clip-path-3)">
        <path id="Fill_9" data-name="Fill 9" d="M6.34,9.913a.435.435,0,0,1-.426-.349A14.069,14.069,0,0,0,.185.792a.435.435,0,0,1,.5-.713A14.936,14.936,0,0,1,6.767,9.392a.436.436,0,0,1-.427.522" transform="translate(0.058 0.019)" fill="#e63331"/>
      </g>
    </g>
    <g id="Group_14" data-name="Group 14" transform="translate(28.863 11.659)">
      <path id="Clip_13-2" data-name="Clip 13" d="M.723,4.045H.714A.435.435,0,0,1,.287,3.6,14.245,14.245,0,0,0,.009.522.435.435,0,1,1,.862.349a15.107,15.107,0,0,1,.3,3.268.435.435,0,0,1-.435.427" transform="translate(0 0.032)" fill="#e63331"/>
      <g id="Group_14-2" data-name="Group 14" clip-path="url(#clip-path-4)">
        <path id="Fill_12" data-name="Fill 12" d="M.723,4.045H.714A.435.435,0,0,1,.287,3.6,14.245,14.245,0,0,0,.009.522.435.435,0,1,1,.862.349a15.107,15.107,0,0,1,.3,3.268.435.435,0,0,1-.435.427" transform="translate(0 0.032)" fill="#e63331"/>
      </g>
    </g>
    <g id="Group_17" data-name="Group 17" transform="translate(0.284 17.417)">
      <path id="Clip_16-2" data-name="Clip 16" d="M.574,1.492a.436.436,0,0,1-.422-.331C.1.951.052.736.009.522A.435.435,0,1,1,.862.349c.041.2.086.405.135.6a.436.436,0,0,1-.423.54" transform="translate(0.04 0.031)" fill="#e63331"/>
      <g id="Group_17-2" data-name="Group 17" clip-path="url(#clip-path-5)">
        <path id="Fill_15" data-name="Fill 15" d="M.574,1.492a.436.436,0,0,1-.422-.331C.1.951.052.736.009.522A.435.435,0,1,1,.862.349c.041.2.086.405.135.6a.436.436,0,0,1-.423.54" transform="translate(0.04 0.031)" fill="#e63331"/>
      </g>
    </g>
    <g id="Group_20" data-name="Group 20" transform="translate(10.806 14.502)">
      <path id="Clip_19-2" data-name="Clip 19" d="M.435,14.945a.435.435,0,0,1-.327-.723A15.861,15.861,0,0,0,3.77.522.435.435,0,1,1,4.624.35,16.725,16.725,0,0,1,.762,14.8a.434.434,0,0,1-.327.148" transform="translate(0.022 0.068)" fill="#e63331"/>
      <g id="Group_20-2" data-name="Group 20" clip-path="url(#clip-path-6)">
        <path id="Fill_18" data-name="Fill 18" d="M.435,14.945a.435.435,0,0,1-.327-.723A15.861,15.861,0,0,0,3.77.522.435.435,0,1,1,4.624.35,16.725,16.725,0,0,1,.762,14.8a.434.434,0,0,1-.327.148" transform="translate(0.022 0.068)" fill="#e63331"/>
      </g>
    </g>
    <g id="Group_23" data-name="Group 23" transform="translate(8.886 23.033)">
      <path id="Clip_22-2" data-name="Clip 22" d="M.435,5.772a.435.435,0,0,1-.311-.739A14.136,14.136,0,0,0,3.187.277.435.435,0,1,1,4,.594,15,15,0,0,1,.747,5.641a.434.434,0,0,1-.312.131" transform="translate(0.06 0.064)" fill="#e63331"/>
      <g id="Group_23-2" data-name="Group 23" clip-path="url(#clip-path-7)">
        <path id="Fill_21" data-name="Fill 21" d="M.435,5.772a.435.435,0,0,1-.311-.739A14.136,14.136,0,0,0,3.187.277.435.435,0,1,1,4,.594,15,15,0,0,1,.747,5.641a.434.434,0,0,1-.312.131" transform="translate(0.06 0.064)" fill="#e63331"/>
      </g>
    </g>
    <g id="Group_26" data-name="Group 26" transform="translate(12.725 12.725)">
      <path id="Clip_25-2" data-name="Clip 25" d="M.544,17.168a.435.435,0,0,1-.343-.7A17.78,17.78,0,0,0,3.625,1.992L3.6,1.866a1.394,1.394,0,0,0-2.727.487l.038.188A14.913,14.913,0,0,1,.879,8.646a.435.435,0,1,1-.851-.182A14.025,14.025,0,0,0,.135,3.125H.128L.045,2.714a2.264,2.264,0,1,1,4.439-.9l.077.382-.009,0A18.65,18.65,0,0,1,.887,17a.434.434,0,0,1-.343.167" transform="translate(0.032 0.014)" fill="#e63331"/>
      <g id="Group_26-2" data-name="Group 26" clip-path="url(#clip-path-8)">
        <path id="Fill_24" data-name="Fill 24" d="M.544,17.168a.435.435,0,0,1-.343-.7A17.78,17.78,0,0,0,3.625,1.992L3.6,1.866a1.394,1.394,0,0,0-2.727.487l.038.188A14.913,14.913,0,0,1,.879,8.646a.435.435,0,1,1-.851-.182A14.025,14.025,0,0,0,.135,3.125H.128L.045,2.714a2.264,2.264,0,1,1,4.439-.9l.077.382-.009,0A18.65,18.65,0,0,1,.887,17a.434.434,0,0,1-.343.167" transform="translate(0.032 0.014)" fill="#e63331"/>
      </g>
    </g>
    <g id="Group_29" data-name="Group 29" transform="translate(7.18 16.066)">
      <path id="Clip_28-2" data-name="Clip 28" d="M.435,11.9a.435.435,0,0,1-.3-.753A12.346,12.346,0,0,0,3.938.494.435.435,0,1,1,4.8.377a13.219,13.219,0,0,1-4.068,11.4.434.434,0,0,1-.3.117" transform="translate(0.046 0.044)" fill="#e63331"/>
      <g id="Group_29-2" data-name="Group 29" clip-path="url(#clip-path-9)">
        <path id="Fill_27" data-name="Fill 27" d="M.435,11.9a.435.435,0,0,1-.3-.753A12.346,12.346,0,0,0,3.938.494.435.435,0,1,1,4.8.377a13.219,13.219,0,0,1-4.068,11.4.434.434,0,0,1-.3.117" transform="translate(0.046 0.044)" fill="#e63331"/>
      </g>
    </g>
    <g id="Group_32" data-name="Group 32" transform="translate(10.948 10.877)">
      <path id="Clip_31-2" data-name="Clip 31" d="M7.977,7.726a.435.435,0,0,1-.435-.434,19.759,19.759,0,0,0-.39-3.839l-.034-.167a3.212,3.212,0,0,0-6.257.145.435.435,0,1,1-.852-.178,4.083,4.083,0,0,1,8,.026l.074.369-.007,0a20.618,20.618,0,0,1,.336,3.639.435.435,0,0,1-.434.437h0" transform="translate(0.067 0.043)" fill="#e63331"/>
      <g id="Group_32-2" data-name="Group 32" clip-path="url(#clip-path-10)">
        <path id="Fill_30" data-name="Fill 30" d="M7.977,7.726a.435.435,0,0,1-.435-.434,19.759,19.759,0,0,0-.39-3.839l-.034-.167a3.212,3.212,0,0,0-6.257.145.435.435,0,1,1-.852-.178,4.083,4.083,0,0,1,8,.026l.074.369-.007,0a20.618,20.618,0,0,1,.336,3.639.435.435,0,0,1-.434.437h0" transform="translate(0.067 0.043)" fill="#e63331"/>
      </g>
    </g>
    <g id="Group_35" data-name="Group 35" transform="translate(15 20.047)">
      <path id="Clip_34-2" data-name="Clip 34" d="M.435,9.916a.435.435,0,0,1-.359-.681A19.686,19.686,0,0,0,3.38.386a.435.435,0,1,1,.865.1A20.561,20.561,0,0,1,.794,9.727a.434.434,0,0,1-.36.19" transform="translate(0.051 0.037)" fill="#e63331"/>
      <g id="Group_35-2" data-name="Group 35" clip-path="url(#clip-path-11)">
        <path id="Fill_33" data-name="Fill 33" d="M.435,9.916a.435.435,0,0,1-.359-.681A19.686,19.686,0,0,0,3.38.386a.435.435,0,1,1,.865.1A20.561,20.561,0,0,1,.794,9.727a.434.434,0,0,1-.36.19" transform="translate(0.051 0.037)" fill="#e63331"/>
      </g>
    </g>
    <g id="Group_38" data-name="Group 38" transform="translate(5.616 9.1)">
      <path id="Clip_37-2" data-name="Clip 37" d="M.435,17.856a.435.435,0,0,1-.285-.765A10.532,10.532,0,0,0,3.625,7.341l-.061-.269A5.906,5.906,0,0,1,9.81.018a.435.435,0,0,1-.068.868A5.036,5.036,0,0,0,4.378,6.68l.049.218A11.4,11.4,0,0,1,.72,17.75a.433.433,0,0,1-.285.106" transform="translate(0.056 0.001)" fill="#e63331"/>
      <g id="Group_38-2" data-name="Group 38" clip-path="url(#clip-path-12)">
        <path id="Fill_36" data-name="Fill 36" d="M.435,17.856a.435.435,0,0,1-.285-.765A10.532,10.532,0,0,0,3.625,7.341l-.061-.269A5.906,5.906,0,0,1,9.81.018a.435.435,0,0,1-.068.868A5.036,5.036,0,0,0,4.378,6.68l.049.218A11.4,11.4,0,0,1,.72,17.75a.433.433,0,0,1-.285.106" transform="translate(0.056 0.001)" fill="#e63331"/>
      </g>
    </g>
    <g id="Group_41" data-name="Group 41" transform="translate(17.204 9.739)">
      <path id="Clip_40-2" data-name="Clip 40" d="M.562,19.944a.435.435,0,0,1-.375-.656A21.4,21.4,0,0,0,2.7,4.22l-.033-.163A5.03,5.03,0,0,0,.223.816.435.435,0,0,1,.647.055,5.9,5.9,0,0,1,3.56,4.047l.069.344-.005,0A22.265,22.265,0,0,1,.937,19.729a.435.435,0,0,1-.376.215" transform="translate(0.041 0.053)" fill="#e63331"/>
      <g id="Group_41-2" data-name="Group 41" clip-path="url(#clip-path-13)">
        <path id="Fill_39" data-name="Fill 39" d="M.562,19.944a.435.435,0,0,1-.375-.656A21.4,21.4,0,0,0,2.7,4.22l-.033-.163A5.03,5.03,0,0,0,.223.816.435.435,0,0,1,.647.055,5.9,5.9,0,0,1,3.56,4.047l.069.344-.005,0A22.265,22.265,0,0,1,.937,19.729a.435.435,0,0,1-.376.215" transform="translate(0.041 0.053)" fill="#e63331"/>
      </g>
    </g>
    <g id="Group_44" data-name="Group 44" transform="translate(4.265 21.043)">
      <path id="Clip_43-2" data-name="Clip 43" d="M.435,4.638a.435.435,0,0,1-.276-.772A8.735,8.735,0,0,0,2.76.278a.435.435,0,1,1,.811.315A9.608,9.608,0,0,1,.711,4.54a.433.433,0,0,1-.275.1" transform="translate(0.025 0.058)" fill="#e63331"/>
      <g id="Group_44-2" data-name="Group 44" clip-path="url(#clip-path-14)">
        <path id="Fill_42" data-name="Fill 42" d="M.435,4.638a.435.435,0,0,1-.276-.772A8.735,8.735,0,0,0,2.76.278a.435.435,0,1,1,.811.315A9.608,9.608,0,0,1,.711,4.54a.433.433,0,0,1-.275.1" transform="translate(0.025 0.058)" fill="#e63331"/>
      </g>
    </g>
    <g id="Group_47" data-name="Group 47" transform="translate(7.251 7.251)">
      <path id="Clip_46-2" data-name="Clip 46" d="M15.018,15.242a.443.443,0,0,1-.071-.006.435.435,0,0,1-.359-.5,23.154,23.154,0,0,0-.156-8.365l-.026-.127A6.849,6.849,0,0,0,.964,8.848l.051.23a9.551,9.551,0,0,1,.136,2.9.435.435,0,1,1-.865-.092A8.665,8.665,0,0,0,.208,9.5L.153,9.251A7.719,7.719,0,1,1,15.286,6.2l.054.269,0,0a24.009,24.009,0,0,1,.109,8.408.435.435,0,0,1-.429.365" transform="translate(0.05 0.03)" fill="#e63331"/>
      <g id="Group_47-2" data-name="Group 47" clip-path="url(#clip-path-15)">
        <path id="Fill_45" data-name="Fill 45" d="M15.018,15.242a.443.443,0,0,1-.071-.006.435.435,0,0,1-.359-.5,23.154,23.154,0,0,0-.156-8.365l-.026-.127A6.849,6.849,0,0,0,.964,8.848l.051.23a9.551,9.551,0,0,1,.136,2.9.435.435,0,1,1-.865-.092A8.665,8.665,0,0,0,.208,9.5L.153,9.251A7.719,7.719,0,1,1,15.286,6.2l.054.269,0,0a24.009,24.009,0,0,1,.109,8.408.435.435,0,0,1-.429.365" transform="translate(0.05 0.03)" fill="#e63331"/>
      </g>
    </g>
    <g id="Group_50" data-name="Group 50" transform="translate(19.763 23.886)">
      <path id="Clip_49-2" data-name="Clip 49" d="M.435,5.119a.436.436,0,0,1-.391-.626A23.3,23.3,0,0,0,1.6.323a.435.435,0,1,1,.841.225A24.191,24.191,0,0,1,.826,4.874a.435.435,0,0,1-.391.245" transform="translate(0.045 0.033)" fill="#e63331"/>
      <g id="Group_50-2" data-name="Group 50" clip-path="url(#clip-path-16)">
        <path id="Fill_48" data-name="Fill 48" d="M.435,5.119a.436.436,0,0,1-.391-.626A23.3,23.3,0,0,0,1.6.323a.435.435,0,1,1,.841.225A24.191,24.191,0,0,1,.826,4.874a.435.435,0,0,1-.391.245" transform="translate(0.045 0.033)" fill="#e63331"/>
      </g>
    </g>
    <g id="Group_53" data-name="Group 53" transform="translate(21.896 9.171)">
      <path id="Clip_52-2" data-name="Clip 52" d="M.828,18.561a.435.435,0,0,1-.406-.591,25,25,0,0,0,1.167-13.8L1.57,4.081A8.606,8.606,0,0,0,.083.692a.435.435,0,1,1,.7-.513,9.464,9.464,0,0,1,1.6,3.574h0l.032.156A25.873,25.873,0,0,1,1.234,18.281a.435.435,0,0,1-.407.28" transform="translate(0.051 0.04)" fill="#e63331"/>
      <g id="Group_53-2" data-name="Group 53" clip-path="url(#clip-path-17)">
        <path id="Fill_51" data-name="Fill 51" d="M.828,18.561a.435.435,0,0,1-.406-.591,25,25,0,0,0,1.167-13.8L1.57,4.081A8.606,8.606,0,0,0,.083.692a.435.435,0,1,1,.7-.513,9.464,9.464,0,0,1,1.6,3.574h0l.032.156A25.873,25.873,0,0,1,1.234,18.281a.435.435,0,0,1-.407.28" transform="translate(0.051 0.04)" fill="#e63331"/>
      </g>
    </g>
    <g id="Group_56" data-name="Group 56" transform="translate(10.735 5.403)">
      <path id="Clip_55-2" data-name="Clip 55" d="M10.006,2.937a.433.433,0,0,1-.275-.1A8.678,8.678,0,0,0,.617,1.662.435.435,0,0,1,.254.871,9.548,9.548,0,0,1,10.282,2.165a.435.435,0,0,1-.276.772" transform="translate(0.051 0.059)" fill="#e63331"/>
      <g id="Group_56-2" data-name="Group 56" clip-path="url(#clip-path-18)">
        <path id="Fill_54" data-name="Fill 54" d="M10.006,2.937a.433.433,0,0,1-.275-.1A8.678,8.678,0,0,0,.617,1.662.435.435,0,0,1,.254.871,9.548,9.548,0,0,1,10.282,2.165a.435.435,0,0,1-.276.772" transform="translate(0.051 0.059)" fill="#e63331"/>
      </g>
    </g>
    <g id="Group_59" data-name="Group 59" transform="translate(3.057 7.464)">
      <path id="Clip_58-2" data-name="Clip 58" d="M.435,16.878A.436.436,0,0,1,.163,16.1,6.842,6.842,0,0,0,2.635,9.615L2.588,9.4A9.527,9.527,0,0,1,5.929.1a.435.435,0,0,1,.549.676A8.657,8.657,0,0,0,3.4,8.99l.051.234a7.71,7.71,0,0,1-2.74,7.558.433.433,0,0,1-.272.1" transform="translate(0.028 0.03)" fill="#e63331"/>
      <g id="Group_59-2" data-name="Group 59" clip-path="url(#clip-path-19)">
        <path id="Fill_57" data-name="Fill 57" d="M.435,16.878A.436.436,0,0,1,.163,16.1,6.842,6.842,0,0,0,2.635,9.615L2.588,9.4A9.527,9.527,0,0,1,5.929.1a.435.435,0,0,1,.549.676A8.657,8.657,0,0,0,3.4,8.99l.051.234a7.71,7.71,0,0,1-2.74,7.558.433.433,0,0,1-.272.1" transform="translate(0.028 0.03)" fill="#e63331"/>
      </g>
    </g>
    <g id="Group_62" data-name="Group 62" transform="translate(1.991 15)">
      <path id="Clip_61-2" data-name="Clip 61" d="M.435,7.859a.435.435,0,0,1-.282-.768A5.046,5.046,0,0,0,1.872,2.43l-.039-.181a11.49,11.49,0,0,1-.217-1.8.435.435,0,1,1,.87-.036A10.606,10.606,0,0,0,2.641,1.84l.051.235A5.917,5.917,0,0,1,.716,7.756a.433.433,0,0,1-.281.1" transform="translate(0.066 0.003)" fill="#e63331"/>
      <g id="Group_62-2" data-name="Group 62" clip-path="url(#clip-path-20)">
        <path id="Fill_60" data-name="Fill 60" d="M.435,7.859a.435.435,0,0,1-.282-.768A5.046,5.046,0,0,0,1.872,2.43l-.039-.181a11.49,11.49,0,0,1-.217-1.8.435.435,0,1,1,.87-.036A10.606,10.606,0,0,0,2.641,1.84l.051.235A5.917,5.917,0,0,1,.716,7.756a.433.433,0,0,1-.281.1" transform="translate(0.066 0.003)" fill="#e63331"/>
      </g>
    </g>
    <g id="Group_65" data-name="Group 65" transform="translate(3.768 3.626)">
      <path id="Clip_64-2" data-name="Clip 64" d="M22.15,11.054a.435.435,0,0,1-.43-.372c-.059-.4-.127-.8-.2-1.195l-.041-.2A10.486,10.486,0,0,0,.864,9.569a.435.435,0,1,1-.857-.149A11.356,11.356,0,0,1,22.258,8.8h0l.067.322c.1.477.181.96.251,1.437a.435.435,0,0,1-.367.495.441.441,0,0,1-.064,0" transform="translate(0.056 0.017)" fill="#e63331"/>
      <g id="Group_65-2" data-name="Group 65" clip-path="url(#clip-path-21)">
        <path id="Fill_63" data-name="Fill 63" d="M22.15,11.054a.435.435,0,0,1-.43-.372c-.059-.4-.127-.8-.2-1.195l-.041-.2A10.486,10.486,0,0,0,.864,9.569a.435.435,0,1,1-.857-.149A11.356,11.356,0,0,1,22.258,8.8h0l.067.322c.1.477.181.96.251,1.437a.435.435,0,0,1-.367.495.441.441,0,0,1-.064,0" transform="translate(0.056 0.017)" fill="#e63331"/>
      </g>
    </g>
    <g id="Group_68" data-name="Group 68" transform="translate(24.882 16.066)">
      <path id="Clip_67-2" data-name="Clip 67" d="M.436,9.582a.435.435,0,0,1-.421-.548A26.7,26.7,0,0,0,.864.463.435.435,0,1,1,1.732.408,27.574,27.574,0,0,1,.856,9.259a.435.435,0,0,1-.42.323" transform="translate(0.037 0.053)" fill="#e63331"/>
      <g id="Group_68-2" data-name="Group 68" clip-path="url(#clip-path-22)">
        <path id="Fill_66" data-name="Fill 66" d="M.436,9.582a.435.435,0,0,1-.421-.548A26.7,26.7,0,0,0,.864.463.435.435,0,1,1,1.732.408,27.574,27.574,0,0,1,.856,9.259a.435.435,0,0,1-.42.323" transform="translate(0.037 0.053)" fill="#e63331"/>
      </g>
    </g>
    <g id="Group_71" data-name="Group 71" transform="translate(1.137 1.777)">
      <path id="Clip_70-2" data-name="Clip 70" d="M.435,19.345a.435.435,0,0,1-.319-.731,3.231,3.231,0,0,0,.821-2.69l-.028-.135A13.184,13.184,0,0,1,15.587.118a.435.435,0,0,1-.116.863A12.312,12.312,0,0,0,1.718,15.39l.048.226a4.1,4.1,0,0,1-1.012,3.59.434.434,0,0,1-.319.139" transform="translate(0.061 0.045)" fill="#e63331"/>
      <g id="Group_71-2" data-name="Group 71" clip-path="url(#clip-path-23)">
        <path id="Fill_69" data-name="Fill 69" d="M.435,19.345a.435.435,0,0,1-.319-.731,3.231,3.231,0,0,0,.821-2.69l-.028-.135A13.184,13.184,0,0,1,15.587.118a.435.435,0,0,1-.116.863A12.312,12.312,0,0,0,1.718,15.39l.048.226a4.1,4.1,0,0,1-1.012,3.59.434.434,0,0,1-.319.139" transform="translate(0.061 0.045)" fill="#e63331"/>
      </g>
    </g>
    <g id="Group_74" data-name="Group 74" transform="translate(18.412 2.417)">
      <path id="Clip_73-2" data-name="Clip 73" d="M9.405,19.86a.435.435,0,0,1-.432-.489,28.673,28.673,0,0,0-.3-8.973l-.053-.253A12.329,12.329,0,0,0,.3.85.435.435,0,0,1,.568.021,13.2,13.2,0,0,1,9.39,9.6H9.4l.078.371a29.559,29.559,0,0,1,.363,9.506.435.435,0,0,1-.431.382" transform="translate(0.052 0.01)" fill="#e63331"/>
      <g id="Group_74-2" data-name="Group 74" clip-path="url(#clip-path-24)">
        <path id="Fill_72" data-name="Fill 72" d="M9.405,19.86a.435.435,0,0,1-.432-.489,28.673,28.673,0,0,0-.3-8.973l-.053-.253A12.329,12.329,0,0,0,.3.85.435.435,0,0,1,.568.021,13.2,13.2,0,0,1,9.39,9.6H9.4l.078.371a29.559,29.559,0,0,1,.363,9.506.435.435,0,0,1-.431.382" transform="translate(0.052 0.01)" fill="#e63331"/>
      </g>
    </g>
  </g>
</svg>
