<svg xmlns="http://www.w3.org/2000/svg" width="45.156" height="34" viewBox="0 0 45.156 34">
  <g id="Group_9956" data-name="Group 9956" transform="translate(-15 -15)">
    <g id="Group_2" data-name="Group 2" transform="translate(15 15)">
      <path id="Path_978-3" d="M2.656,0H42.5a2.656,2.656,0,0,1,2.656,2.656L39.844,27.625a2.656,2.656,0,0,1-2.656,2.656H7.969a2.656,2.656,0,0,1-2.656-2.656L0,2.656A2.656,2.656,0,0,1,2.656,0Z" transform="translate(0 3.719)" fill="#dddbd7"/>
      <path id="Rectangle_14-3" d="M1.063,0H44.094a1.062,1.062,0,0,1,1.063,1.063V2.656H0V1.063A1.063,1.063,0,0,1,1.063,0Z" fill="#dddbd7"/>
    </g>
  </g>
</svg>
