<svg xmlns="http://www.w3.org/2000/svg" version="1.1" xmlns:xlink="http://www.w3.org/1999/xlink" xmlns:svgjs="http://svgjs.com/svgjs" width="512" height="512" x="0" y="0" viewBox="0 0 512 512" style="enable-background:new 0 0 512 512" xml:space="preserve" class=""><g><g xmlns="http://www.w3.org/2000/svg"><g><path d="m461 111h-27.58l15.106-53.832c6.715-23.928-7.239-48.768-31.166-55.482-23.927-6.718-48.768 7.239-55.482 31.167l-21.929 78.147h-86.52l15.106-53.832c6.714-23.928-7.239-48.768-31.167-55.482-23.927-6.718-48.767 7.239-55.482 31.167l-21.929 78.147h-58.957c-24.853 0-45 20.147-45 45s20.147 45 45 45h33.702l-30.867 110h-52.835c-24.853 0-45 20.147-45 45s20.147 45 45 45h27.58l-15.106 53.833c-6.715 23.927 7.239 48.768 31.167 55.482 4.066 1.142 8.157 1.686 12.182 1.686 19.662 0 37.727-12.991 43.3-32.852l21.928-78.149h86.52l-15.106 53.833c-6.714 23.927 7.239 48.768 31.167 55.482 4.066 1.142 8.157 1.686 12.182 1.686 19.662 0 37.727-12.991 43.3-32.852l21.929-78.149h58.957c24.853 0 45-20.147 45-45s-20.147-45-45-45h-33.702l30.867-110h52.835c24.853 0 45-20.147 45-45s-20.147-45-45-45zm-177.173 200h-86.52l30.867-110h86.52z" fill="#ff8b8b" data-original="#9ddff6" class=""></path></g><path d="m461 111h-27.58l15.106-53.832c6.715-23.928-7.239-48.768-31.166-55.482-23.927-6.718-48.768 7.239-55.482 31.167l-21.929 78.147h-43.26l-25.255 90h43.26l-30.867 110h-43.26l-25.255 90h43.26l-15.106 53.833c-6.714 23.927 7.239 48.768 31.167 55.482 4.066 1.142 8.157 1.686 12.182 1.686 19.662 0 37.727-12.991 43.3-32.852l21.928-78.149h58.957c24.853 0 45-20.147 45-45s-20.147-45-45-45h-33.702l30.867-110h52.835c24.853 0 45-20.147 45-45s-20.147-45-45-45z" fill="#ff8b8b" data-original="#8bb9ff" class=""></path></g></g></svg>