<svg xmlns="http://www.w3.org/2000/svg" width="19" height="19.998" viewBox="0 0 19 19.998">
  <g id="Home" transform="translate(0 0)">
    <path id="Home-2" data-name="Home" d="M13.29,20a1.831,1.831,0,0,1-1.79-1.689l-.01-.14V15.309a.635.635,0,0,0-.54-.621l-.09-.01H8.189a.635.635,0,0,0-.619.54l-.01.091v2.85a1.1,1.1,0,0,1-.02.179l-.01.021-.012.069A1.822,1.822,0,0,1,5.83,19.989L5.7,20H3.91A3.915,3.915,0,0,1,0,16.3V7.989A2.967,2.967,0,0,1,1,5.8L7.23.788a3.633,3.633,0,0,1,4.36-.121l.161.121,6.088,4.871A3,3,0,0,1,18.99,7.788l.01.2V16.1A3.917,3.917,0,0,1,15.28,20Z" transform="translate(0 0)" fill="#e63331"/>
  </g>
</svg>
