<svg xmlns="http://www.w3.org/2000/svg" width="40" height="40" viewBox="0 0 40 40">
  <g id="Group_32" data-name="Group 32" transform="translate(-315 -52)">
    <text id="User_Log_in" data-name="User Log in" transform="translate(335 79)" fill="#e63331" font-size="15" font-family="GeezaPro, Geeza Pro"><tspan x="0" y="0">ع</tspan></text>
    <g id="Group" transform="translate(315 52)">
      <rect id="Rectangle-4" width="40" height="40" rx="8" fill="#e63331" opacity="0.152"/>
      <g id="Group_4" data-name="Group 4" transform="translate(11 12)">
        <path id="Combined_Shape" data-name="Combined Shape" d="M9.668,10.649h0L7.6,8.6l.025-.025a14.269,14.269,0,0,0,3.021-5.319h2.386V1.629H7.33V0H5.7V1.629H0V3.252H9.1A12.863,12.863,0,0,1,6.516,7.617a12.844,12.844,0,0,1-1.879-2.73H3.005A14.3,14.3,0,0,0,5.432,8.6L1.29,12.7l1.152,1.152L6.515,9.776l2.533,2.533Z" transform="translate(0 0)" fill="#e63331"/>
      </g>
    </g>
  </g>
</svg>
