<svg id="logo" xmlns="http://www.w3.org/2000/svg" width="119.334" height="50.847" viewBox="0 0 119.334 50.847">
  <g id="icon">
    <path id="Path" d="M0,23.244q0-.669.01-1.341a4.477,4.477,0,0,1,1.314-2.464L19.344,1.425a4.292,4.292,0,0,1,6.361-.031q9.06,9.01,18.07,18.07a4.278,4.278,0,0,1-.023,6.3C39.831,29.7,35.883,33.623,31.966,37.56a1.131,1.131,0,0,1-1.02.415,15.341,15.341,0,0,1-2.5-.366,2.375,2.375,0,0,1-1.765-2.228c-.309-3.751-.082-7.508-.131-11.262-.039-3.033,0-6.067-.009-9.1a7.756,7.756,0,0,1,.271-1.7,2.225,2.225,0,0,1,1.82-1.725c1.078-.291,2.2-.205,3.289-.411.752-.146.934-.375.86-1.218a.934.934,0,0,0-1.068-.918H13.365c-.718,0-1.134.345-1.157.914-.032.794.254,1.118,1.09,1.217.812.095,1.629.146,2.437.275,2.141.331,2.753,1.029,2.779,3.076q.131,10.047,0,20.093c-.029,2.085-.6,2.824-2.661,3.123-.428.063-.853.159-1.282.21a1.771,1.771,0,0,1-1.622-.541Q7.247,31.645,1.47,25.933A4.743,4.743,0,0,1,0,23.244Z" transform="translate(0 5.627)" fill="#676771"/>
    <path id="Path-2" data-name="Path" d="M10.087,0h1.042a3.551,3.551,0,0,1,1.712.906c2.477,2.362,4.962,4.711,7.432,7.077a2.731,2.731,0,0,1,.63,3.436c-.261.474-.437.641-.933.163C17.7,9.363,15.38,7.186,13.077,5c-1.622-1.543-3.244-1.561-4.86-.032-2.332,2.2-4.655,4.4-6.953,6.631-.447.437-.634.316-.892-.136A2.665,2.665,0,0,1,.757,8.226C3.364,5.683,6.014,3.191,8.657.689A3.05,3.05,0,0,1,10.087,0Z" transform="translate(11.932 0)" fill="#e63331"/>
    <path id="Path-3" data-name="Path" d="M5.538,3.276l-.729.012C2.623,3.111,1.469,1.44,0,0H10.055C8.672,1.371,7.578,2.944,5.538,3.276Z" transform="translate(17.501 47.559)" fill="#e63331"/>
  </g>
  <g id="Text" transform="translate(50.227 14.167)">
    <path id="Combined_Shape" data-name="Combined Shape" d="M16.388,15.524c-1.993-3.011-3.953-6.043-5.934-9.059-.156-.244-.325-.479-.629-.918v8.589a5.1,5.1,0,0,1-.107,1.513,1.4,1.4,0,0,1-1.448,1.1,1.378,1.378,0,0,1-1.433-1.111,2.307,2.307,0,0,1-.092-.616c0-4.3-.025-8.6.011-12.891A1.893,1.893,0,0,1,9.012.1a2.289,2.289,0,0,1,1.543,1.254q2.978,4.467,5.959,8.933c.161.243.335.478.512.727.3-.242.167-.537.168-.774.011-2.776,0-5.554.014-8.326C17.219.663,17.714.1,18.69.1s1.53.618,1.55,1.792c.024,1.492,0,2.984,0,4.478v7.967c0,1.416-.347,2.093-1.19,2.354a2.2,2.2,0,0,1-.654.1A2.439,2.439,0,0,1,16.388,15.524Zm49.83.349c-1.141-1.746-2.239-3.52-3.424-5.392-1.075,1.664-2.109,3.259-3.148,4.837a5.355,5.355,0,0,1-.756.991,1.493,1.493,0,0,1-1.82.26,1.365,1.365,0,0,1-.644-1.613,4.608,4.608,0,0,1,.828-1.77c1.04-1.528,2.067-3.067,3.139-4.574a.87.87,0,0,0,0-1.176c-.94-1.38-1.835-2.792-2.732-4.2a6.969,6.969,0,0,1-.591-1.1A1.324,1.324,0,0,1,57.561.269a1.5,1.5,0,0,1,2,.412c.817,1.174,1.552,2.4,2.329,3.61.3.472.6.948.978,1.543,1.075-1.64,2.08-3.182,3.091-4.719.367-.562.761-1.063,1.548-1.031a1.289,1.289,0,0,1,1.317,1.677,4.474,4.474,0,0,1-.7,1.434c-.849,1.263-1.641,2.569-2.564,3.776a1.487,1.487,0,0,0-.035,2.091c1,1.372,1.876,2.834,2.793,4.268a5.177,5.177,0,0,1,.729,1.433l-.02,1.138a1.762,1.762,0,0,1-1.406.877A1.725,1.725,0,0,1,66.218,15.873Zm-21.429.6a7.263,7.263,0,0,1-5.5-7.01A12.491,12.491,0,0,1,39.349,6.7a7.816,7.816,0,0,1,2.49-4.915A7.848,7.848,0,0,1,47.088.1c4.842,0,7.883,3.016,7.935,7.871a12.559,12.559,0,0,1-.305,3.1,7.079,7.079,0,0,1-6.82,5.67c-.234.016-.472.024-.707.024A10.144,10.144,0,0,1,44.789,16.477Zm2.233-13.85a3.89,3.89,0,0,0-3.763,2.422,7.975,7.975,0,0,0-.1,6.428,4.32,4.32,0,0,0,1.57,2.024,4.242,4.242,0,0,0,2.4.71h.049a4.3,4.3,0,0,0,3.973-2.827,8.663,8.663,0,0,0,.527-3.214,7.572,7.572,0,0,0-.731-3.227A4.075,4.075,0,0,0,47.1,2.626ZM1.341,16.633a1.543,1.543,0,0,1-1.3-1.408A3.623,3.623,0,0,1,0,14.6V1.987C0,.745.523.068,1.471.005c1.111-.073,1.791.586,1.8,1.83.022,2.386.011,4.773,0,7.157,0,2.029-.022,4.054-.032,6.082a2.432,2.432,0,0,1-.138.561,1.368,1.368,0,0,1-1.4,1.026A2.4,2.4,0,0,1,1.341,16.633Zm26.153-.223c-.725-.017-1.473-.035-2.209-.036a1.4,1.4,0,0,1-1.412-1.362,6.762,6.762,0,0,1-.054-.9V2.675c0-1.806.449-2.248,2.288-2.25h5.722a4.583,4.583,0,0,1,3.648,1.383,3.735,3.735,0,0,1-.637,5.627c-.122.089-.246.168-.417.277l-.225.144.434.215a3.882,3.882,0,0,1,2.527,4.505A4.242,4.242,0,0,1,33.5,16.208a25.243,25.243,0,0,1-3.761.238C28.989,16.446,28.229,16.427,27.494,16.41Zm1.324-2.336h.046l.082,0c.3.008.616.016.923.016a8.26,8.26,0,0,0,2.441-.305,2.153,2.153,0,0,0,1.573-2.313,2.127,2.127,0,0,0-1.8-2.038,8.856,8.856,0,0,0-2.157-.194h-.5l-.538,0h-.005l-.545,0c-.27,0-.493,0-.7-.008h-.059c-.3,0-.479.081-.479.482.014.947.013,1.907.01,2.835v.013c0,.329,0,.658,0,.987v.031a.566.566,0,0,0,.089.4.3.3,0,0,0,.224.076h.02c.138,0,.281-.006.437-.006C28.187,14.056,28.508,14.065,28.818,14.073ZM27.1,4.915c0,2.011,0,2.011,2.046,2.011a11.623,11.623,0,0,0,2.487-.179,1.992,1.992,0,0,0,1.579-2,1.67,1.67,0,0,0-1.525-1.791A10.034,10.034,0,0,0,29.6,2.78l-.312,0c-.254,0-.492-.01-.7-.01C27.1,2.766,27.1,3.011,27.1,4.915Z" transform="translate(0 0)" fill="#676771"/>
    <path id="SupplyChain.Fulfllment.Logistics" d="M11.143,3.21l.174-.315a.394.394,0,0,0,.244.092.306.306,0,0,0,.286-.209l.064-.141L11.132.785h.421l.562,1.425L12.639.785h.406L12.19,2.923a.628.628,0,0,1-.612.445A.639.639,0,0,1,11.143,3.21Zm46.227-.1.174-.293a.949.949,0,0,0,.59.2.529.529,0,0,0,.59-.534V2.255a.691.691,0,0,1-.623.319.834.834,0,0,1-.849-.909A.825.825,0,0,1,58.088.77a.7.7,0,0,1,.636.319v-.3h.4v1.7a.871.871,0,0,1-.976.881A1.372,1.372,0,0,1,57.37,3.115Zm-49.7.237V.785h.407V1.11A.735.735,0,0,1,8.732.77a.885.885,0,0,1,.9.962.871.871,0,0,1-.891.947.737.737,0,0,1-.664-.339V3.352Zm-2.581,0V.785h.407V1.11A.736.736,0,0,1,6.152.77a.884.884,0,0,1,.9.962.871.871,0,0,1-.89.947.738.738,0,0,1-.665-.339V3.352Zm45.718-.891a.223.223,0,1,1,.445,0,.223.223,0,1,1-.445,0Zm-24.128,0a.223.223,0,1,1,.445,0,.223.223,0,1,1-.445,0Zm36.285-.325V1.159H62.7v-.3h.265V.339h.4V.856h.555v.3h-.555v.9c0,.194.075.255.2.255a.668.668,0,0,0,.283-.081l.1.311a.9.9,0,0,1-.463.138A.5.5,0,0,1,62.962,2.136Zm-14.65,0V1.159h-.265v-.3h.265V.339h.4V.856h.555v.3h-.555v.9c0,.194.075.255.2.255a.665.665,0,0,0,.283-.081l.1.311a.9.9,0,0,1-.463.138A.5.5,0,0,1,48.312,2.136ZM19.621,2.1c0-.343.257-.562.71-.565h.57V1.478c0-.237-.152-.378-.449-.378a.986.986,0,0,0-.555.191l-.167-.284A1.384,1.384,0,0,1,20.54.77c.484,0,.756.247.76.661l0,1.234h-.4v-.23a.76.76,0,0,1-.622.247A.6.6,0,0,1,19.621,2.1Zm-5.207-.675A1.255,1.255,0,0,1,15.714.18a1.363,1.363,0,0,1,.941.382l-.244.3a.965.965,0,0,0-.689-.314.871.871,0,1,0,0,1.742A1.02,1.02,0,0,0,16.411,2l.247.276a1.405,1.405,0,0,1-.958.406A1.253,1.253,0,0,1,14.414,1.425Zm53.215.994.145-.29a1.027,1.027,0,0,0,.63.233c.173,0,.307-.06.307-.2,0-.385-.99-.17-.986-.849,0-.382.333-.544.693-.544a1.2,1.2,0,0,1,.658.191l-.149.3a1.107,1.107,0,0,0-.541-.166c-.159,0-.276.053-.276.187,0,.347,1,.159,1,.841,0,.385-.343.558-.721.558A1.165,1.165,0,0,1,67.629,2.418Zm-2.121-.689A.909.909,0,0,1,66.455.77a.991.991,0,0,1,.778.308l-.222.262a.708.708,0,0,0-.537-.212.556.556,0,0,0-.559.6.556.556,0,0,0,.559.6.7.7,0,0,0,.555-.227l.226.227a.958.958,0,0,1-.8.349A.9.9,0,0,1,65.507,1.729Zm-4.684.689.145-.29a1.025,1.025,0,0,0,.629.233c.174,0,.308-.06.308-.2,0-.385-.99-.17-.986-.849,0-.382.332-.544.693-.544a1.19,1.19,0,0,1,.657.191l-.149.3a1.1,1.1,0,0,0-.541-.166c-.158,0-.275.053-.275.187,0,.347,1,.159,1,.841,0,.385-.343.558-.722.558A1.164,1.164,0,0,1,60.824,2.418Zm-5.957-.693a.981.981,0,0,1,1.962,0,.981.981,0,0,1-1.962,0Zm-11.581,0a.913.913,0,0,1,.95-.959c.661,0,.931.432.881,1.111H43.695a.573.573,0,0,0,.584.47.732.732,0,0,0,.53-.219l.215.23a1.021,1.021,0,0,1-.778.318A.9.9,0,0,1,43.285,1.729ZM31,1.955V.785h.407V1.842a.413.413,0,0,0,.438.455.531.531,0,0,0,.516-.587V.785h.407V2.666h-.407V2.3a.69.69,0,0,1-.671.382A.653.653,0,0,1,31,1.955Zm-28.476,0V.785H2.93V1.842a.413.413,0,0,0,.438.455.531.531,0,0,0,.517-.587V.785h.407V2.666H3.885V2.3a.692.692,0,0,1-.671.382A.652.652,0,0,1,2.525,1.955ZM0,2.287l.18-.36a1.307,1.307,0,0,0,.838.36c.29,0,.464-.109.464-.3C1.481,1.436.145,1.743.145.862c0-.424.365-.689.9-.689a1.61,1.61,0,0,1,.866.255L1.74.8a1.479,1.479,0,0,0-.725-.23c-.244,0-.4.093-.4.258,0,.541,1.336.251,1.332,1.142,0,.442-.389.714-.933.714A1.518,1.518,0,0,1,0,2.287Zm64.5.379V.785h.4V2.666Zm-4.635,0V.785h.4V2.666ZM53,2.666V.191h.418v2.1h1.071v.379Zm-5.893,0V1.608a.419.419,0,0,0-.453-.455.526.526,0,0,0-.534.512v1h-.407V.785h.407v.361A.71.71,0,0,1,46.817.77a.658.658,0,0,1,.7.725v1.17Zm-4.776,0V1.608a.418.418,0,0,0-.445-.459.534.534,0,0,0-.516.587v.93h-.407V1.608a.415.415,0,0,0-.442-.459A.538.538,0,0,0,40,1.736v.93h-.4V.785H40v.364A.694.694,0,0,1,40.684.77a.63.63,0,0,1,.653.453A.693.693,0,0,1,42.052.77a.653.653,0,0,1,.689.725v1.17Zm-3.938,0V.042H38.8V2.666Zm-1.22,0V.042h.407V2.666Zm-1.2,0V.785h.4V2.666Zm-1.135,0V1.156H34.6v-.3h.248V.671a.616.616,0,0,1,.647-.647A.709.709,0,0,1,35.84.11l-.014.354A.836.836,0,0,0,35.5.382a.227.227,0,0,0-.255.251v.22h.491v.3h-.491v1.51Zm-1.28,0V.042h.406V2.666Zm-4.688,0V.191h1.661l0,.374h-1.24V1.28h1.124v.371H29.293V2.666Zm-4.278,0V1.608a.418.418,0,0,0-.453-.455.526.526,0,0,0-.534.512v1h-.406V.785h.406v.361A.711.711,0,0,1,24.3.77.658.658,0,0,1,25,1.5v1.17Zm-2.573,0V.785h.4V2.666Zm-3.377,0V1.608a.418.418,0,0,0-.452-.455.536.536,0,0,0-.537.587v.926h-.407V.042h.407V1.153a.711.711,0,0,1,.7-.382.658.658,0,0,1,.7.725v1.17Zm-8.4,0V.042h.407V2.666ZM64.469.248a.237.237,0,1,1,.473,0,.237.237,0,1,1-.473,0Zm-4.635,0a.237.237,0,1,1,.473,0,.237.237,0,1,1-.473,0Zm-23.891,0a.237.237,0,1,1,.474,0,.237.237,0,1,1-.474,0Zm-13.954,0a.237.237,0,1,1,.474,0,.237.237,0,1,1-.474,0Z" transform="translate(0 18.732)" fill="#e63331"/>
  </g>
</svg>
