<svg id="Group_4_Copy" data-name="Group 4 Copy" xmlns="http://www.w3.org/2000/svg" width="43" height="43" viewBox="0 0 43 43">
  <rect id="Rectangle" width="43" height="43" rx="21.5" fill="#fbdddc"/>
  <g id="Notification" transform="translate(14 13)">
    <path id="Path_425" d="M0,10.608v-.2A3.24,3.24,0,0,1,.542,8.775,4.383,4.383,0,0,0,1.616,6.692c0-.6,0-1.208.052-1.808C1.939,2,4.795,0,7.615,0h.07c2.82,0,5.676,2,5.955,4.884.052.6,0,1.208.044,1.808a4.46,4.46,0,0,0,1.074,2.091,3.156,3.156,0,0,1,.541,1.628V10.6a3.21,3.21,0,0,1-.76,2.151,4.055,4.055,0,0,1-2.567,1.234,40.57,40.57,0,0,1-8.653,0A4.1,4.1,0,0,1,.752,12.751,3.243,3.243,0,0,1,0,10.608Z" transform="translate(0 0)" fill="none" stroke="#e63331" stroke-linecap="round" stroke-linejoin="round" stroke-miterlimit="10" stroke-width="1.5"/>
    <path id="Path_421" d="M0,0A2.755,2.755,0,0,0,1.834,1.014,2.779,2.779,0,0,0,3.859.454,2.6,2.6,0,0,0,4.331,0" transform="translate(5.449 16.967)" fill="none" stroke="#e63331" stroke-linecap="round" stroke-linejoin="round" stroke-miterlimit="10" stroke-width="1.5"/>
  </g>
</svg>
