<svg xmlns="http://www.w3.org/2000/svg" width="40" height="40" viewBox="0 0 40 40">
  <g id="Group_9936" data-name="Group 9936" transform="translate(-5 -5)">
    <rect id="Rectangle-4" width="40" height="40" rx="8" transform="translate(5 5)" fill="#f7f9fb"/>
    <g id="present-box" transform="translate(16 16)">
      <path id="Shape" d="M1.063,4.958A1.064,1.064,0,0,1,0,3.9V1.063A1.064,1.064,0,0,1,1.063,0H15.937A1.064,1.064,0,0,1,17,1.063V3.9a1.064,1.064,0,0,1-1.063,1.062Z" transform="translate(0 3.542)" fill="#676771" stroke="#676771" stroke-miterlimit="10" stroke-width="0.4"/>
      <path id="Path" d="M12.4,9.208H1.771A1.773,1.773,0,0,1,0,7.438V.354a.354.354,0,0,1,.708,0V7.438A1.064,1.064,0,0,0,1.771,8.5H12.4a1.064,1.064,0,0,0,1.063-1.062V.354a.354.354,0,0,1,.708,0V7.438A1.773,1.773,0,0,1,12.4,9.208Z" transform="translate(1.417 7.792)" fill="#676771" stroke="#676771" stroke-miterlimit="10" stroke-width="0.4"/>
      <path id="Path-2" data-name="Path" d="M.354,9.208A.354.354,0,0,1,0,8.854V.354a.354.354,0,0,1,.708,0v8.5A.354.354,0,0,1,.354,9.208Z" transform="translate(8.146 7.792)" fill="#676771" stroke="#676771" stroke-miterlimit="10" stroke-width="0.4"/>
      <path id="Shape-2" data-name="Shape" d="M3.82,4.241c-.446-.1-2.7-.623-3.3-1.219a1.77,1.77,0,1,1,2.5-2.5c.6.595,1.121,2.853,1.22,3.3A.355.355,0,0,1,3.9,4.25.363.363,0,0,1,3.82,4.241Z" transform="translate(4.604 0.001)" fill="#676771" stroke="#676771" stroke-miterlimit="10" stroke-width="0.4"/>
      <path id="Shape-3" data-name="Shape" d="M.1,4.145a.352.352,0,0,1-.1-.327c.1-.447.623-2.7,1.219-3.3a1.771,1.771,0,0,1,2.5,0,1.77,1.77,0,0,1,0,2.5c-.6.6-2.854,1.12-3.3,1.219a.377.377,0,0,1-.077.008A.355.355,0,0,1,.1,4.145Z" transform="translate(8.145 0.001)" fill="#676771" stroke="#676771" stroke-miterlimit="10" stroke-width="0.4"/>
    </g>
  </g>
</svg>
