<svg xmlns="http://www.w3.org/2000/svg" width="19.952" height="19.941" viewBox="0 0 19.952 19.941">
  <g id="true_orange" transform="translate(-0.189 -0.054)">
    <g id="check">
      <path id="Ellipse_338" d="M9.976,0A9.971,9.971,0,1,1,0,9.971,9.973,9.973,0,0,1,9.976,0Z" transform="translate(0.189 0.054)" fill="#f68620"/>
      <path id="Path_1730" d="M4.131,7.35,9.918,1.566a.5.5,0,0,0,0-.712L9.206.148a.5.5,0,0,0-.711,0L3.775,4.865l-2.2-2.208a.505.505,0,0,0-.712,0l-.712.716a.5.5,0,0,0,0,.712L3.419,7.355a.5.5,0,0,0,.712,0Z" transform="translate(5.256 6.189)" fill="#fff"/>
    </g>
  </g>
</svg>
